<svg width="32" height="32" viewBox="0 0 32 32" fill="none" xmlns="http://www.w3.org/2000/svg">
<g clip-path="url(#clip0_19_90)">
<path d="M24 0H8C3.58172 0 0 3.58172 0 8V24C0 28.4183 3.58172 32 8 32H24C28.4183 32 32 28.4183 32 24V8C32 3.58172 28.4183 0 24 0Z" fill="white"/>
<path d="M16.5476 26.5174H15.3049V26.2185H16.5476V26.5174ZM15.2212 25.097C15.2212 24.8843 15.2858 24.7138 15.4152 24.5854C15.5444 24.4557 15.7152 24.3909 15.9273 24.3909C16.1396 24.3909 16.3104 24.4551 16.4396 24.5834C16.5702 24.7118 16.6355 24.887 16.6355 25.109V25.2656C16.6355 25.4741 16.5722 25.6433 16.4457 25.773C16.3192 25.9027 16.1478 25.9676 15.9314 25.9676C15.7152 25.9676 15.5424 25.9027 15.4131 25.773C15.2851 25.6433 15.2212 25.4701 15.2212 25.2534V25.097ZM15.5783 25.2656C15.5783 25.3939 15.6097 25.4941 15.6723 25.5665C15.7348 25.6387 15.8211 25.6747 15.9314 25.6747C16.0389 25.6747 16.1232 25.6387 16.1844 25.5665C16.247 25.4941 16.2783 25.3919 16.2783 25.2594V25.097C16.2783 24.97 16.247 24.8703 16.1844 24.7981C16.1218 24.7244 16.0362 24.6878 15.9273 24.6878C15.8198 24.6878 15.7348 24.7244 15.6723 24.7981C15.6097 24.8703 15.5783 24.972 15.5783 25.103V25.2656ZM14.9397 27.3439H14.3928L13.3744 25.2696V27.3439H12.8765V24.4229H13.4214L14.4457 26.5032V24.4229H14.9397V27.3439ZM18.5465 27.3439H18.0526V24.9987L17.3241 25.2434V24.8322L18.4832 24.4129H18.5465V27.3439Z" fill="#3452CD"/>
<path d="M13.3489 17.5596L13.8797 17.0708" stroke="#490322" stroke-width="0.349186" stroke-linecap="round" stroke-linejoin="round"/>
<path d="M10.6497 12.3215C10.4374 12.4263 10.1363 12.5798 9.92404 12.7544C9.58795 13.0511 9.51718 13.1733 9.3049 13.8715C9.03958 14.7967 8.70348 16.1408 8.56194 16.8565C8.47351 17.3102 8.47351 17.3976 8.57964 17.6245C8.73884 17.9561 9.19878 18.1306 9.49948 17.9736C9.62333 17.9037 9.74715 17.8514 9.78253 17.8514C9.80023 17.8514 9.88865 18.1481 9.97712 18.5147C10.1009 19.0034 10.2425 19.3525 10.5786 19.8588C10.8262 20.2427 11.0916 20.749 11.1623 20.9934C11.4454 21.936 11.923 22.3201 12.3475 21.9011C12.5067 21.7439 12.5421 21.7789 12.8605 22.2152C13.3028 22.8088 13.6035 22.8437 13.8865 22.3201C14.0457 22.0058 14.0988 21.9883 14.1695 22.1455C14.2757 22.3724 14.6825 22.3724 14.7886 22.1455C14.8417 22.0233 14.9302 21.9883 15.0364 22.0406C15.4432 22.2152 15.7086 21.7962 15.797 20.7665C15.8147 20.4871 15.8855 20.1904 15.9207 20.0857C15.9916 19.9112 16.0093 19.9287 16.08 20.1729C16.1154 20.3301 16.1861 20.7315 16.2392 21.0633C16.363 21.9011 16.487 22.128 16.8407 22.0581C17.0176 22.0233 17.159 22.0581 17.2121 22.1628C17.3183 22.3724 17.7429 22.3724 17.849 22.1628C17.9198 22.0233 17.9552 22.0581 18.1321 22.3374C18.4327 22.8437 18.7334 22.8088 19.1404 22.2152C19.4411 21.7789 19.4765 21.7614 19.6179 21.9185C19.8302 22.1803 20.184 22.128 20.4318 21.8137C20.5555 21.6567 20.7501 21.2378 20.8738 20.8712C20.9978 20.5046 21.2454 20.0159 21.4401 19.789C21.6877 19.4922 21.8114 19.1955 21.9707 18.6194C22.1476 17.991 22.2006 17.8689 22.3068 17.9212C22.5898 18.0782 23.1204 18.0086 23.2975 17.8165C23.6158 17.4499 23.5805 17.2404 22.8198 14.3952C22.3953 12.8591 22.0891 12.56 21.3339 12.3339C20.9612 12.2544 20.4401 12.3298 19.9128 12.56C19.4814 12.8028 19.6831 12.5736 18.4746 13.607C18.2759 13.777 17.9237 14.3254 17.6583 14.4999C17.1099 14.8839 16.6284 15.5647 16.2392 16.4549L15.9916 17.0135L15.85 16.6121C15.567 15.8091 15.11 15.065 14.597 14.7857C14.696 14.845 14.1342 14.4334 13.7109 13.9113C13.0664 13.1164 12.1803 12.56 11.2136 12.3215C10.9984 12.2684 10.7303 12.2817 10.6497 12.3215ZM12.1803 12.8779C12.6579 13.1921 13.3735 13.8192 13.8158 14.3079C13.975 15.1109 13.7273 16.0359 13.3028 16.3677C13.1789 16.4549 13.1436 16.5247 13.1966 16.5422C13.2497 16.5422 13.4443 16.3852 13.6035 16.1931C13.8334 15.9138 13.9043 15.7044 13.975 15.2854C14.0104 14.9887 14.0811 14.7443 14.1342 14.7443C14.1695 14.7443 14.3994 14.9014 14.6296 15.0934C15.3725 15.7219 16.0623 17.223 16.0623 18.2703V18.7415L15.8678 18.4798C15.7439 18.3226 15.5494 18.2179 15.3194 18.1831C14.9126 18.1481 14.7886 18.0434 14.5941 17.5721C14.5234 17.3801 14.4525 17.2754 14.4525 17.3626C14.4525 17.4324 14.3465 17.5023 14.2049 17.5023C14.0633 17.5023 13.9395 17.5371 13.9219 17.5721C13.9043 17.607 14.0281 17.642 14.1873 17.642C14.3994 17.642 14.541 17.7117 14.6117 17.8689C14.7179 18.0782 14.7179 18.0957 14.5587 18.1656C14.4703 18.2004 14.2935 18.1831 14.1873 18.1133C14.0811 18.0434 13.7627 17.991 13.462 17.991C12.6129 18.0086 12.1529 17.8864 12.0999 17.6245C12.0468 17.3626 11.6046 16.6644 11.4984 16.6644C11.4454 16.6644 11.5161 16.7691 11.6399 16.9088C11.8699 17.1532 12.0645 17.7815 12.0645 18.2004C12.0645 18.3401 12.0114 18.2703 11.9407 17.991C11.7284 17.2927 11.4807 16.9787 11.1623 16.9787C11.0208 16.9787 10.8439 17.0485 10.8085 17.1357C10.7378 17.2579 10.7908 17.2754 11.0385 17.2056C11.2861 17.1532 11.3746 17.1705 11.5161 17.3801L11.693 17.6245H11.3746C11.1977 17.6245 11.0385 17.6768 11.0208 17.7117C11.0031 17.7642 11.1446 17.799 11.3392 17.799C11.6399 17.799 11.7107 17.8514 11.8522 18.1306C12.0822 18.5845 12.0645 18.7067 11.7992 18.6369C11.6046 18.5845 11.6046 18.602 11.8522 18.7415C12.2237 18.9511 12.4006 19.5446 12.4006 20.6792C12.4006 21.5694 12.3475 21.7266 12.0114 21.7266C11.6753 21.7266 11.4984 21.4822 11.2508 20.6967C11.1269 20.2777 11.0031 19.946 10.9854 19.946C10.9324 19.981 10.5786 19.5271 10.4017 19.2303C10.1717 18.8114 9.97712 17.8689 10.0656 17.642C10.1186 17.5371 10.2425 17.188 10.3663 16.8738C10.5432 16.42 10.614 16.2978 10.8085 16.263C11.2154 16.1931 11.9053 16.4899 12.4006 16.9263C12.6659 17.1707 12.8428 17.2754 12.7544 17.1707C12.6836 17.0658 12.4536 16.8389 12.2768 16.6819L11.923 16.3852L12.2945 16.1756C12.489 16.0535 12.6836 15.9138 12.719 15.8441C12.7544 15.7742 12.6128 15.8266 12.4183 15.9488C12.0999 16.1233 11.923 16.1581 11.3392 16.0884C10.8085 16.0359 10.6316 15.9663 10.6316 15.8441C10.6316 15.7567 10.7024 15.6868 10.7732 15.6868C10.8914 15.5806 10.376 15.8789 10.7732 15.4425C10.3132 15.7395 10.7111 15.5822 10.6049 15.6868C10.3926 15.8789 11.4101 15.1115 11.3747 15.0242C11.357 15.0067 10.8439 15.2854 10.9147 15.1632C11.0208 15.0061 11.0385 14.849 11.0031 14.2381C10.95 13.1733 10.8085 13.0162 10.8439 14.081C10.8616 14.7094 10.8439 14.9538 10.7732 15.1458C10.667 15.3727 10.667 15.3727 10.667 14.9363C10.667 14.6221 10.614 14.3952 10.4901 14.1508L10.3132 13.8192L10.4548 14.1683C10.5963 14.4999 10.667 15.4425 10.5609 15.4425C10.5432 15.4425 10.4017 15.233 10.2601 14.9538C10.1186 14.6745 9.95942 14.465 9.90635 14.4825C9.8533 14.4825 9.88865 14.5697 9.99481 14.657C10.2071 14.8665 10.4724 15.5822 10.4724 15.9836C10.4724 16.3502 9.95943 17.4674 9.72945 17.6245C9.48179 17.7815 8.91573 17.7642 8.80961 17.5896C8.66806 17.3626 8.70348 17.0135 8.96881 15.9138C9.57025 13.4177 9.68347 13.0511 10.1965 12.7544C10.391 12.6496 10.3731 12.6749 10.4536 12.7544C10.4536 12.5954 10.4984 12.6261 10.5691 12.56C10.6737 12.4622 11.4727 12.4066 12.1803 12.8779ZM20.8001 12.56C20.8806 12.56 21.4445 12.4805 21.6056 12.719C21.6056 12.6271 21.6056 12.7189 21.6056 12.7984C21.6861 12.7189 21.7053 12.6846 21.9707 12.9289C22.3422 13.2431 22.4482 13.4875 22.7136 14.5523C22.8198 14.9538 22.9966 15.652 23.1028 16.1058C23.3504 17.0658 23.3682 17.4499 23.1735 17.6245C22.9436 17.8338 22.3953 17.7642 22.1652 17.5198C21.9 17.223 21.5638 16.3502 21.5638 15.9836C21.5638 15.652 21.8469 14.8141 22.0238 14.6221C22.0945 14.5523 22.1121 14.4999 22.0592 14.4999C22.0061 14.4999 21.8645 14.7094 21.7407 14.9712C21.6169 15.233 21.4753 15.46 21.4577 15.46C21.3692 15.46 21.4223 14.5348 21.5284 14.273C21.5815 14.1334 21.6169 14.0112 21.5815 14.0112C21.4753 14.0112 21.3515 14.5348 21.3339 14.9538C21.3339 15.1632 21.2808 15.3553 21.2278 15.3901C21.104 15.4774 20.874 15.2627 20.3168 15.2627C21.5184 15.7165 21.3339 15.7567 21.3339 15.7742C21.3639 15.8191 21.254 15.3833 20.7324 15.3421C21.5461 15.6912 21.5284 16.0186 21.0331 16.0359C20.8738 16.0359 20.5555 16.0884 20.3608 16.1233C20.0071 16.1932 19.8302 16.1408 19.2111 15.7742C19.1404 15.7219 19.158 15.7915 19.2818 15.8964C19.388 16.0186 19.6179 16.1756 19.7595 16.2455L20.0248 16.3852L19.6534 16.7168C19.4411 16.8913 19.3703 17.0833 19.2818 17.223C19.1935 17.3626 19.1404 17.3452 19.388 17.1182C20.0248 16.5422 20.4494 16.2978 20.9447 16.2978C21.263 16.2978 21.387 16.3327 21.4401 16.5074C21.4753 16.6296 21.6169 16.9612 21.7407 17.2579L21.9707 17.799L21.8469 18.3576C21.7407 18.8813 21.0685 20.138 20.9978 19.9983C20.98 19.9635 20.8562 20.2602 20.7324 20.6616C20.467 21.4995 20.2901 21.7439 19.9717 21.7439C19.6179 21.7439 19.5118 21.4647 19.5472 20.6093C19.5826 19.6318 19.7772 18.9686 20.0956 18.7766L20.3432 18.6194L20.1133 18.6892C19.901 18.7591 19.8833 18.7415 19.9541 18.5322C20.0778 18.1306 20.2901 17.8864 20.5908 17.7815L20.8917 17.6768L20.5732 17.6593L20.2547 17.642L20.4318 17.3976C20.5732 17.188 20.6617 17.1532 20.9093 17.223C21.157 17.2754 21.21 17.2579 21.1392 17.1532C21.0861 17.0658 20.9269 17.0135 20.7678 17.0135C20.467 17.031 20.2194 17.3452 20.0248 17.9561C19.9188 18.3053 19.9188 18.3053 19.8833 18.0434C19.8479 17.7117 20.1487 16.9787 20.3608 16.8738C20.4318 16.8215 20.4848 16.7691 20.467 16.7343C20.3963 16.6121 19.9717 17.1532 19.8479 17.5198C19.7417 17.8165 19.671 17.8864 19.3703 17.9561C19.1757 18.0086 18.7688 18.0259 18.5035 18.0259C18.2204 18.0086 17.9021 18.0609 17.7605 18.1481C17.6191 18.2179 17.4599 18.2354 17.3713 18.1831L17.2121 18.0782L17.3537 17.8514C17.4599 17.6943 17.6569 17.6996 17.7782 17.642C17.9374 17.6593 17.5133 17.6196 17.8326 17.5696C17.6381 17.5696 17.7429 17.5721 17.5836 17.5721C17.3537 17.5721 17.4422 17.4674 17.4599 17.3102C17.4775 17.2056 17.4422 17.2754 17.3537 17.4674C17.159 18.0086 17.0176 18.1656 16.6991 18.2004C16.5399 18.2179 16.3454 18.2703 16.2569 18.3053C16.133 18.3576 16.0978 18.3053 16.0623 17.8165C16.0269 17.3626 16.0447 17.188 16.1861 16.7516C16.4339 16.0359 16.7876 15.5123 17.3713 15.0411L17.8667 14.657L17.9374 15.1807C17.9728 15.4774 18.079 15.8266 18.1497 15.9663C18.2913 16.2455 18.6096 16.5597 18.7512 16.5597C18.8043 16.5597 18.7512 16.4899 18.6274 16.4025C18.1852 16.0709 18.1967 15.0585 18.3027 14.273C18.3205 14.0984 18.4989 14.0032 18.7861 13.6852C19.1083 13.2878 19.1889 13.2083 19.7527 12.8903C20.0358 12.7681 20.6232 12.56 20.8001 12.56ZM21.104 13.5224C20.9978 13.9763 21.0154 14.9538 21.1216 15.1632C21.1923 15.2854 21.21 15.0934 21.21 14.2381C21.21 13.6446 21.21 13.1559 21.1923 13.1559C21.1923 13.1559 21.157 13.313 21.104 13.5224ZM13.6565 17.6943C13.7096 17.7292 13.7627 17.7292 13.7981 17.6768C13.8334 17.6245 13.7804 17.607 13.7096 17.607C13.6212 17.6245 13.6035 17.6593 13.6565 17.6943ZM12.8428 18.1656C12.949 18.2703 13.0551 18.4448 13.0551 18.5497C13.0551 18.7067 13.0728 18.6892 13.1259 18.4798C13.1789 18.2528 13.232 18.2004 13.5681 18.2004C14.0281 18.2004 14.3111 18.3576 14.3111 18.6544C14.3111 18.8289 14.258 18.8638 13.9926 18.8638C13.7981 18.8638 13.6389 18.9336 13.5681 19.0558C13.462 19.2303 13.4443 19.2303 13.2143 18.9686C12.9667 18.6717 12.4183 18.4623 12.2945 18.602C12.2414 18.6544 12.2237 18.5497 12.2237 18.3053C12.2237 17.9736 12.2414 17.9387 12.436 17.9387C12.5421 17.9736 12.7367 18.0609 12.8428 18.1656ZM19.7948 18.2703C19.7948 18.5322 19.7595 18.567 19.4587 18.6194C19.2642 18.6544 18.9812 18.7939 18.8219 18.9336C18.5565 19.178 18.5212 19.178 18.3089 19.0034C18.1852 18.8813 18.0083 18.8289 17.8667 18.8638C17.6722 18.9161 17.6544 18.8987 17.6722 18.6892C17.7252 18.375 17.9552 18.2179 18.4327 18.2179C18.7688 18.2179 18.8219 18.2528 18.875 18.4972C18.9281 18.7067 18.9457 18.7242 18.9457 18.567C18.9457 18.3053 19.2642 18.0086 19.5648 17.991C19.7595 17.9736 19.7948 18.0259 19.7948 18.2703ZM15.4256 18.7067L15.6555 18.9859L15.4787 18.6544C15.3194 18.3576 15.3194 18.3226 15.4432 18.3401C15.6201 18.3401 16.0269 18.7766 16.0269 18.9686C16.0269 19.0558 15.9562 19.3525 15.8855 19.6493L15.7439 20.1729L15.5848 19.9112C15.4078 19.6144 15.001 19.5621 14.8595 19.789C14.7886 19.8936 14.771 19.8936 14.771 19.7539C14.771 19.6493 14.8064 19.5097 14.8595 19.4224C14.9657 19.2478 15.3547 19.2303 15.5494 19.4049C15.6201 19.4747 15.6908 19.4922 15.6908 19.4572C15.6908 19.4224 15.5848 19.3002 15.4432 19.2128C15.2487 19.0733 15.1425 19.0558 14.9657 19.1605C14.8064 19.2478 14.7003 19.2654 14.5941 19.1605C14.4349 19.021 14.3465 18.6194 14.4173 18.41C14.488 18.2179 15.1602 18.3925 15.4256 18.7067ZM16.5223 18.6544L16.3454 18.9686L16.6108 18.6544C16.7876 18.4448 16.9822 18.3401 17.1414 18.3401C17.6544 18.3401 17.7429 18.567 17.4599 19.0558C17.3006 19.3002 17.2652 19.3177 17.0176 19.178C16.8231 19.0733 16.6991 19.0733 16.6108 19.1605C16.5046 19.2827 16.5046 19.3002 16.7169 19.3002C17 19.3002 17.2121 19.4922 17.2121 19.7366C17.2121 19.8762 17.1768 19.8936 17.0707 19.789C16.876 19.5969 16.5577 19.6318 16.3808 19.8588C16.1509 20.138 16.08 19.946 16.133 19.1431C16.1861 18.4623 16.2216 18.375 16.5399 18.3401C16.6815 18.3401 16.6639 18.375 16.5223 18.6544ZM11.2861 18.8114C11.2684 18.8638 11.3038 18.8987 11.3923 18.8638C11.5515 18.7939 11.5692 18.7067 11.4277 18.7067C11.3746 18.7067 11.3038 18.7591 11.2861 18.8114ZM13.0374 19.0383C13.1613 19.1605 13.3205 19.37 13.3735 19.4922C13.462 19.7366 13.462 19.7366 13.2674 19.6843C13.1613 19.6493 13.002 19.6843 12.9313 19.7539C12.8252 19.8588 12.8605 19.8762 13.0551 19.8238C13.4089 19.7366 13.6919 20.0857 13.8511 20.8013C13.9926 21.4822 13.9574 21.8488 13.6742 22.2152C13.4443 22.5119 13.2497 22.4422 12.8782 21.8836C12.5952 21.4647 12.5952 21.4297 12.5952 20.749C12.5952 20.2777 12.5421 19.8413 12.4536 19.4747C12.3829 19.1605 12.3121 18.8813 12.3121 18.8638C12.2768 18.7415 12.8428 18.8638 13.0374 19.0383ZM19.5296 19.7016C19.4056 20.2951 19.3703 20.714 19.4056 21.0107C19.4411 21.4297 19.4234 21.4995 19.158 21.9011C18.7865 22.4422 18.6274 22.5294 18.3444 22.2677C18.079 22.0406 18.0083 21.6217 18.1143 20.9759C18.2735 20.0159 18.6274 19.6668 19.158 19.9287C19.2996 19.9983 19.2818 19.981 19.1226 19.8413C19.0164 19.7539 18.8219 19.6668 18.7158 19.6668C18.5389 19.6668 18.5389 19.6318 18.6096 19.4224C18.7158 19.1256 19.1049 18.8289 19.4411 18.8289H19.6886L19.5296 19.7016ZM14.4525 19.2654C14.6117 19.4049 14.6472 19.5446 14.6825 19.9983C14.7003 20.3126 14.7534 20.8189 14.7886 21.1156C14.8595 21.7439 14.771 21.9534 14.4173 21.9534C14.1518 21.9534 14.0281 21.7614 14.0281 21.3773C14.0281 21.2203 13.975 20.906 13.9219 20.6616C13.7981 20.1555 13.8334 20.0334 14.1695 19.8936C14.3994 19.8065 14.3994 19.8064 14.2049 19.789C14.0988 19.789 13.9395 19.8413 13.8688 19.9112C13.7627 20.0159 13.7096 19.981 13.6035 19.7539C13.4443 19.4224 13.4797 19.3177 13.7627 19.1082C13.9926 18.9511 14.1342 18.9859 14.4525 19.2654ZM18.2204 19.1256C18.4858 19.3177 18.4858 19.3177 18.3796 19.7366C18.3266 19.946 18.2735 20.0159 18.1852 19.9635C18.1321 19.9112 17.9728 19.8588 17.8312 19.8413L17.5836 19.8064L17.8136 19.9112C18.1497 20.0682 18.1852 20.1729 18.0613 20.6792C18.0083 20.9236 17.9552 21.2551 17.9552 21.4123C17.9552 21.7614 17.7782 21.9708 17.4775 21.9708C17.1768 21.9708 17.1061 21.7439 17.1768 21.1156C17.2121 20.8189 17.2475 20.4348 17.2475 20.2254C17.2475 19.5446 17.4422 19.1955 17.9198 18.9686C17.9728 18.9511 18.0966 19.021 18.2204 19.1256ZM16.3099 19.5097C16.2216 19.7016 16.2216 19.7016 16.3277 19.5621C16.3984 19.4747 16.4515 19.37 16.4515 19.3525C16.4515 19.2478 16.3984 19.3177 16.3099 19.5097ZM15.5317 19.981C15.8855 20.4173 15.5494 21.9534 15.1247 21.7614C14.8948 21.6567 14.7534 20.6093 14.9302 20.2951C15.001 20.1729 14.9833 20.1555 14.8771 20.2254C14.7534 20.2951 14.7534 20.2777 14.8948 20.0507C15.1071 19.7366 15.3194 19.7191 15.5317 19.981ZM16.9645 19.8936C17.1061 19.981 17.1414 20.1032 17.1414 20.4696C17.1414 20.7315 17.1237 21.1156 17.0707 21.325C17 21.6916 16.9822 21.7266 16.7346 21.6916C16.487 21.6567 16.4692 21.6217 16.3454 20.9411L16.204 20.2254L16.363 19.9983C16.5577 19.7715 16.7169 19.7366 16.9645 19.8936Z" fill="#3452CD"/>
<path d="M19.1829 9.57166L18.6526 13.5823" stroke="#3452CD" stroke-width="0.5"/>
<path d="M23.318 10.0946L22.0457 12.78" stroke="#3452CD" stroke-width="0.5"/>
<path d="M12.892 9.99023L13.3868 13.7567" stroke="#3452CD" stroke-width="0.5"/>
<path d="M8.6499 10.5133L9.99512 12.759" stroke="#3452CD" stroke-width="0.5"/>
<path d="M13.0301 17.1228L13.3485 17.5418L13.8791 17.053L13.5608 16.6341C13.5077 16.5469 13.4193 16.5119 13.3131 16.4945C13.207 16.477 13.1362 16.5294 13.0655 16.5817C12.9947 16.6516 12.9593 16.7389 12.9417 16.8436C12.9417 16.9483 12.9593 17.053 13.0301 17.1228Z" fill="#FFF1E8"/>
<path d="M13.3489 17.5596L13.8797 17.0708" stroke="#490322" stroke-width="0.349186" stroke-linecap="round" stroke-linejoin="round"/>
<path d="M13.4551 17.4543L13.7735 17.8733C13.8266 17.9431 13.8973 17.9781 13.9682 18.013C14.0565 18.0305 14.1274 18.013 14.1981 17.9781C14.1627 18.013 14.1274 18.0653 14.0743 18.0828C14.0389 18.1177 13.9682 18.1177 13.9151 18.1177C13.862 18.1177 13.8089 18.1003 13.7558 18.0828C13.7205 18.048 13.6674 18.0305 13.632 17.9781L13.3136 17.5592L13.4551 17.4543Z" fill="#490322"/>
<path d="M13.3489 17.5596L13.6673 17.9785C13.7204 18.0657 13.8088 18.1007 13.9149 18.118C14.0211 18.1355 14.0918 18.0832 14.1627 18.0308C14.2334 17.961 14.2687 17.8737 14.2865 17.769C14.3041 17.6643 14.2687 17.5596 14.198 17.4897L13.8797 17.0708L13.3489 17.5596Z" stroke="#490322" stroke-width="0.349186" stroke-linecap="round" stroke-linejoin="round"/>
<path d="M13.3489 17.5596L13.8797 17.0708" stroke="#490322" stroke-width="0.349186" stroke-linecap="round" stroke-linejoin="round"/>
<path d="M18.9193 17.5332L18.6008 17.9696C18.5477 18.057 18.4592 18.0918 18.353 18.1093C18.2471 18.1267 18.1585 18.0918 18.0878 18.022C18.0171 17.9521 17.964 17.8649 17.9462 17.7603C17.9286 17.6554 17.964 17.5507 18.0171 17.4809L18.3354 17.0444L18.9193 17.5332Z" stroke="#575555" stroke-width="0.349186" stroke-linecap="round" stroke-linejoin="round"/>
<path d="M13.0301 17.1228L13.3485 17.5418L13.8791 17.053L13.5608 16.6341C13.5077 16.5469 13.4193 16.5119 13.3131 16.4945C13.207 16.477 13.1362 16.5294 13.0655 16.5817C12.9947 16.6516 12.9593 16.7389 12.9417 16.8436C12.9417 16.9483 12.9593 17.053 13.0301 17.1228Z" fill="#E2574C" stroke="#575555" stroke-width="0.349186" stroke-linecap="round" stroke-linejoin="round"/>
<path d="M13.348 17.5598L13.6664 17.9787C13.7195 18.0659 13.808 18.1008 13.9141 18.1183C14.0202 18.1358 14.0909 18.0834 14.1618 18.0311C14.2325 17.9613 14.2679 17.8739 14.2856 17.7692C14.3032 17.6645 14.2679 17.5598 14.1971 17.49L13.8788 17.071L13.348 17.5598Z" fill="#FFF1E8"/>
<path d="M19.2554 17.097L18.937 17.5335L18.3533 17.0447L18.6717 16.6082C18.7246 16.521 18.8132 16.4861 18.9193 16.4687C19.0255 16.4512 19.1139 16.4861 19.1847 16.5559C19.2554 16.6258 19.3085 16.7131 19.3262 16.8178C19.3262 16.905 19.3085 17.0272 19.2554 17.097Z" fill="#15B5EC" stroke="#575555" stroke-width="0.349186" stroke-linecap="round" stroke-linejoin="round"/>
<path d="M18.7581 17.4175L18.4528 17.8646C18.402 17.9361 18.334 17.972 18.2661 18.0076C18.1813 18.0255 18.0965 18.0255 18.0287 17.972C18.0626 18.0076 18.1135 18.0613 18.1474 18.0791C18.1813 18.115 18.2491 18.115 18.3 18.115C18.3509 18.115 18.402 18.0972 18.4528 18.0791C18.4867 18.0434 18.5376 18.0255 18.5715 17.972L18.8769 17.5247L18.7581 17.4175Z" fill="#575555"/>
<path d="M18.9193 17.5332L18.3533 17.0444" stroke="#575555" stroke-width="0.349186" stroke-linecap="round" stroke-linejoin="round"/>
<path d="M13.3489 17.5596L13.8797 17.0708" stroke="#490322" stroke-width="0.349186" stroke-linecap="round" stroke-linejoin="round"/>
<path d="M13.4551 17.4543L13.7735 17.8733C13.8266 17.9431 13.8973 17.9781 13.9682 18.013C14.0565 18.0305 14.1274 18.013 14.1981 17.9781C14.1627 18.013 14.1274 18.0653 14.0743 18.0828C14.0389 18.1177 13.9682 18.1177 13.9151 18.1177C13.862 18.1177 13.8089 18.1003 13.7558 18.0828C13.7205 18.048 13.6674 18.0305 13.632 17.9781L13.3136 17.5592L13.4551 17.4543Z" fill="#575555"/>
<path d="M13.3489 17.5596L13.6673 17.9785C13.7204 18.0657 13.8088 18.1007 13.9149 18.118C14.0211 18.1355 14.0918 18.0832 14.1627 18.0308C14.2334 17.961 14.2687 17.8737 14.2865 17.769C14.3041 17.6643 14.2687 17.5596 14.198 17.4897L13.8797 17.0708L13.3489 17.5596Z" stroke="#575555" stroke-width="0.349186" stroke-linecap="round" stroke-linejoin="round"/>
<path d="M5.35314 25.2071L5.2267 25.0103L6.21593 24.3912L5.89563 23.8929L4.9064 24.5119L4.77998 24.3152L5.76763 23.6972L5.67969 23.5603L6.12748 23.3019L6.24342 23.4823L5.96653 23.6555L6.5017 24.4882L5.35314 25.2071Z" fill="#3452CD"/>
<path d="M4.83313 22.8014L5.07768 23.2963L5.45383 23.1153L5.16795 22.5368L5.33755 22.4553L5.72689 23.2432L4.50445 23.8313L4.11798 23.0493L4.28926 22.9669L4.57227 23.5395L4.90978 23.3772L4.66522 22.8822L4.83313 22.8014Z" fill="#3452CD"/>
<path d="M4.86911 21.2271L4.94825 21.4455L4.37917 21.6462L4.58362 22.2107L5.15268 22.01L5.23214 22.2294L3.95153 22.6809L3.87208 22.4617L4.40507 22.2737L4.20062 21.7092L3.66763 21.8973L3.58849 21.6787L4.86911 21.2271Z" fill="#3452CD"/>
<path d="M3.42274 20.2908L3.52257 20.697L4.65896 20.4252L4.71415 20.6497L3.57775 20.9216L3.6767 21.3244L3.49153 21.3687L3.23757 20.335L3.42274 20.2908Z" fill="#3452CD"/>
<path d="M3.99969 19.7081L4.50039 19.6416L4.53189 19.8725L3.18432 20.0515L3.11499 19.5431C3.09474 19.3947 3.11788 19.2717 3.18437 19.1743C3.25079 19.0763 3.34847 19.0186 3.47744 19.0016C3.60947 18.9841 3.71805 19.0133 3.80318 19.0893C3.88823 19.1648 3.94124 19.2795 3.96223 19.4334L3.99969 19.7081ZM3.8118 19.7331L3.77397 19.4555C3.76277 19.3735 3.73479 19.3134 3.69002 19.2753C3.64464 19.2373 3.58493 19.2233 3.5109 19.2332C3.43808 19.2428 3.38307 19.2723 3.34586 19.322C3.30801 19.3715 3.29371 19.4349 3.30292 19.5115L3.34164 19.7954L3.8118 19.7331Z" fill="#3452CD"/>
<path d="M4.05028 17.3667L4.03953 17.8862L4.35374 18.0012L4.34872 18.2434L3 17.7094L3.00432 17.5004L4.37404 17.0204L4.369 17.2635L4.05028 17.3667ZM3.85044 17.8168L3.85848 17.4282L3.29061 17.6113L3.85044 17.8168Z" fill="#3452CD"/>
<path d="M3.07864 16.3591L4.16689 16.1277L3.19399 15.5946L3.23894 15.2967L4.58341 15.4942L4.54876 15.7238L4.10553 15.6587L3.51614 15.5488L4.49309 16.0929L4.46819 16.2578L3.3741 16.4965L3.96943 16.5607L4.41266 16.6259L4.37801 16.8554L3.03355 16.6579L3.07864 16.3591Z" fill="#3452CD"/>
<path d="M3.75194 14.1066L3.58618 14.7028L3.90394 14.7888L3.97755 14.524C4.0039 14.4292 4.04339 14.3511 4.09599 14.2895C4.14859 14.228 4.2103 14.1871 4.28114 14.1668C4.35195 14.1464 4.42728 14.1471 4.50709 14.1687C4.62951 14.2018 4.71648 14.2697 4.768 14.3721C4.81969 14.474 4.82645 14.5959 4.7883 14.7378L4.65069 15.2327L3.34004 14.8778L3.56831 14.0569L3.75194 14.1066ZM4.08668 14.8383L4.53135 14.9587L4.60473 14.6948C4.62581 14.619 4.6215 14.5544 4.59177 14.5012C4.56162 14.4471 4.51205 14.4108 4.44303 14.3921C4.37702 14.3742 4.31905 14.3808 4.26911 14.4119C4.21917 14.443 4.18339 14.495 4.16177 14.5682L4.08668 14.8383Z" fill="#3452CD"/>
<path d="M4.55822 13.3998L3.99654 12.8934L4.09234 12.6524L4.96911 13.4934L5.0325 13.5635C5.11288 13.6606 5.12762 13.7732 5.07671 13.9013L5.03605 13.9885L4.86294 13.9195C4.87072 13.9067 4.88154 13.8828 4.8954 13.848C4.91995 13.7862 4.91058 13.7324 4.86728 13.6866L4.77814 13.6006L3.68733 13.6714L3.78141 13.4347L4.55822 13.3998Z" fill="#3452CD"/>
<path d="M4.74866 11.3811L5.94879 12.0098L5.83845 12.2149L4.80647 11.6743L4.61116 12.0373L5.06384 12.3016C5.20452 12.3857 5.30769 12.4624 5.37332 12.5315C5.43869 12.5999 5.47607 12.6691 5.48545 12.7394C5.49483 12.8097 5.47644 12.8878 5.43032 12.9735L5.4023 13.0256L5.23579 12.9384L5.25084 12.9045C5.27185 12.855 5.27464 12.8099 5.25925 12.7691C5.24412 12.7278 5.21068 12.6852 5.15889 12.6414C5.10683 12.5968 5.02485 12.5416 4.91291 12.4761L4.33748 12.1454L4.74866 11.3811Z" fill="#3452CD"/>
<path d="M6.27288 10.956L5.97544 11.385L6.17429 11.651L6.03557 11.851L5.20434 10.6757L5.32405 10.503L6.73597 10.8409L6.59673 11.0417L6.27288 10.956ZM5.85579 11.2249L6.07834 10.9039L5.50191 10.7504L5.85579 11.2249Z" fill="#3452CD"/>
<path d="M6.59943 9.22384L6.32437 9.54228L7.21341 10.2901L7.0613 10.4661L6.17227 9.71837L5.8996 10.034L5.75475 9.91218L6.45458 9.10199L6.59943 9.22384Z" fill="#3452CD"/>
<path d="M7.92562 8.67845C8.01712 8.77385 8.08077 8.87326 8.11656 8.97675C8.15194 9.07978 8.15701 9.17982 8.13178 9.27691C8.1066 9.3731 8.05352 9.45903 7.97258 9.53461C7.8925 9.60939 7.80268 9.65696 7.70304 9.67734C7.60344 9.69685 7.50221 9.68699 7.39943 9.64776C7.29709 9.60813 7.20103 9.54194 7.11122 9.44917L7.05861 9.39434C6.96755 9.29941 6.90414 9.19977 6.86835 9.09541C6.83303 8.99066 6.82796 8.89019 6.85315 8.79396C6.87838 8.69691 6.93122 8.61074 7.01175 8.53556C7.09224 8.46038 7.18189 8.41302 7.28061 8.3935C7.37937 8.37309 7.48009 8.38294 7.58287 8.42304C7.68521 8.46267 7.78212 8.52975 7.87365 8.62428L7.92562 8.67845ZM7.70524 8.78792C7.60178 8.68005 7.50164 8.61678 7.40487 8.59813C7.30857 8.57908 7.2224 8.60503 7.14643 8.676C7.07225 8.74527 7.04173 8.82828 7.0548 8.92507C7.06793 9.021 7.12428 9.12177 7.22385 9.22735L7.27774 9.28351C7.38035 9.39052 7.4807 9.45355 7.57875 9.47267C7.67731 9.49136 7.76409 9.46564 7.83915 9.39553C7.91515 9.32457 7.94615 9.24156 7.9321 9.14649C7.91853 9.05097 7.85917 8.9484 7.75399 8.83874L7.70524 8.78792Z" fill="#3452CD"/>
<path d="M8.44268 8.44473L8.74818 8.84121L8.56004 8.98234L7.73784 7.91531L8.15203 7.60455C8.27298 7.5138 8.39281 7.47286 8.51149 7.48173C8.63071 7.49021 8.72964 7.54551 8.80831 7.64763C8.88888 7.75219 8.91663 7.85974 8.89154 7.97034C8.86693 8.08054 8.7919 8.1827 8.6665 8.27679L8.44268 8.44473ZM8.32805 8.29596L8.5541 8.12636C8.62102 8.07614 8.66022 8.02245 8.6717 7.96525C8.68281 7.90757 8.66576 7.84942 8.62058 7.79079C8.57615 7.73315 8.52294 7.70061 8.46088 7.69319C8.39845 7.68527 8.33564 7.70426 8.27244 7.75015L8.04118 7.92366L8.32805 8.29596Z" fill="#3452CD"/>
<path d="M10.5242 7.68031L10.3216 7.7986L10.0142 7.28597L9.49084 7.59159L9.79827 8.1042L9.5949 8.22298L8.90303 7.06938L9.10643 6.95061L9.39438 7.43075L9.91769 7.12513L9.62975 6.64501L9.83234 6.5267L10.5242 7.68031Z" fill="#3452CD"/>
<path d="M11.5141 6.53086C11.5683 6.65084 11.5948 6.76548 11.5938 6.87482C11.5924 6.98359 11.5636 7.07963 11.5071 7.16292C11.451 7.24542 11.372 7.30905 11.2702 7.35383C11.1695 7.39811 11.0688 7.41352 10.9679 7.40009C10.8674 7.38583 10.7752 7.34338 10.6915 7.27269C10.6083 7.20176 10.54 7.10782 10.4865 6.99091L10.4554 6.92195C10.4014 6.80254 10.3751 6.68776 10.3765 6.57762C10.3784 6.46723 10.4075 6.37077 10.4636 6.28829C10.5201 6.205 10.599 6.14109 10.7002 6.09654C10.8014 6.05201 10.9019 6.03671 11.0016 6.05067C11.1016 6.06378 11.1934 6.10609 11.2768 6.17759C11.3599 6.24853 11.4288 6.34358 11.4833 6.46274L11.5141 6.53086ZM11.2694 6.5619C11.2081 6.42622 11.1349 6.33373 11.0499 6.28444C10.9655 6.23487 10.8755 6.23111 10.7799 6.27315C10.6867 6.31418 10.6299 6.38247 10.6097 6.47806C10.5898 6.57283 10.609 6.68636 10.6674 6.81859L10.6993 6.88924C10.7601 7.02379 10.8335 7.11614 10.9196 7.16632C11.0062 7.21625 11.0967 7.22045 11.1912 7.17892C11.2867 7.13688 11.3439 7.06873 11.3627 6.97446C11.382 6.87994 11.3605 6.76371 11.2982 6.6258L11.2694 6.5619Z" fill="#3452CD"/>
<path d="M12.3943 5.50244L12.62 5.43316L13.0237 6.71321L12.7981 6.78251L12.5105 5.8708L12.2282 6.9575L12.0026 7.0268L11.5988 5.74672L11.8245 5.67744L12.1123 6.59002L12.3943 5.50244ZM12.2986 5.17408C12.3219 5.24793 12.3146 5.31575 12.2767 5.37753C12.2388 5.43931 12.1762 5.48361 12.0887 5.51046C12.0014 5.5373 11.9243 5.5359 11.8575 5.50624C11.7908 5.4766 11.7458 5.42485 11.7225 5.351L11.8848 5.30116C11.897 5.33983 11.9175 5.36664 11.9463 5.38158C11.9756 5.39573 12.0099 5.3968 12.0491 5.38475C12.0883 5.37269 12.1156 5.35274 12.131 5.32488C12.1461 5.29644 12.1476 5.26288 12.1354 5.22419L12.2986 5.17408Z" fill="#3452CD"/>
<path d="M14.832 5.75366C14.8503 5.88381 14.8434 6.00125 14.8117 6.10599C14.7798 6.21013 14.7249 6.29447 14.6472 6.35898C14.57 6.42282 14.4763 6.46227 14.3659 6.47733C14.2568 6.49223 14.1556 6.47938 14.0626 6.43878C13.9701 6.39749 13.8936 6.3314 13.833 6.24049C13.7731 6.1495 13.734 6.0405 13.7156 5.91348L13.7051 5.83868C13.6869 5.70915 13.694 5.59166 13.7264 5.48622C13.7593 5.38069 13.8144 5.29603 13.8915 5.23219C13.9692 5.16766 14.063 5.12792 14.1727 5.11293C14.2826 5.09795 14.3833 5.11083 14.4753 5.15161C14.5675 5.19169 14.6436 5.25752 14.7037 5.34912C14.7635 5.44011 14.8029 5.55032 14.8217 5.67978L14.832 5.75366ZM14.5883 5.71627C14.5677 5.56911 14.5234 5.46016 14.4557 5.38946C14.3886 5.31868 14.3033 5.29036 14.1997 5.3045C14.0984 5.3183 14.0247 5.36834 13.9784 5.45461C13.9326 5.5402 13.919 5.65454 13.9378 5.79762L13.9485 5.87424C13.9691 6.02019 14.0135 6.12908 14.082 6.20093C14.1512 6.27268 14.237 6.30157 14.3394 6.2876C14.4428 6.27345 14.517 6.22367 14.5616 6.13827C14.6068 6.05276 14.6189 5.9352 14.598 5.7856L14.5883 5.71627Z" fill="#3452CD"/>
<path d="M16.2431 6.34072L16.0079 6.34531L15.9959 5.74954L15.3881 5.76139L15.4002 6.35716L15.164 6.36178L15.137 5.02105L15.3732 5.01644L15.3844 5.57446L15.9922 5.56261L15.981 5.00458L16.2164 5L16.2431 6.34072Z" fill="#3452CD"/>
<path d="M16.9854 5.81422L16.8253 5.80003L16.7733 6.37251L16.5389 6.35172L16.6605 5.01595L16.8948 5.03674L16.8438 5.5982L16.973 5.60965L17.4221 5.0835L17.7104 5.10905L17.1872 5.70727L17.6296 6.44846L17.3469 6.42339L16.9854 5.81422Z" fill="#3452CD"/>
<path d="M18.97 6.0645C18.9432 6.19326 18.8971 6.3018 18.8318 6.39014C18.7665 6.47786 18.6863 6.53939 18.5914 6.57471C18.4971 6.60954 18.3953 6.61592 18.2863 6.59383C18.1782 6.57199 18.0874 6.52662 18.0134 6.45774C17.9401 6.38837 17.8903 6.30085 17.864 6.19523C17.8382 6.0897 17.8382 5.97401 17.8637 5.84815L17.8791 5.77415C17.9057 5.646 17.9522 5.53751 18.0182 5.44871C18.085 5.36 18.1655 5.29824 18.2598 5.26341C18.3548 5.22809 18.4565 5.22142 18.5651 5.24338C18.6736 5.26535 18.7641 5.31064 18.8369 5.37929C18.9105 5.44746 18.96 5.53461 18.9856 5.64072C19.0114 5.74624 19.0112 5.86313 18.9851 5.9914L18.97 6.0645ZM18.7528 5.94909C18.7831 5.80349 18.7782 5.68621 18.7384 5.59726C18.699 5.5084 18.6281 5.45362 18.5257 5.4329C18.4257 5.41266 18.3392 5.4356 18.2664 5.50175C18.1943 5.5674 18.143 5.67081 18.1124 5.81194L18.0967 5.88776C18.0667 6.03214 18.0718 6.14948 18.1121 6.23977C18.153 6.33019 18.224 6.38564 18.3253 6.40612C18.4277 6.42684 18.5143 6.40426 18.5852 6.33836C18.6566 6.27258 18.7078 6.16569 18.7385 6.01767L18.7528 5.94909Z" fill="#3452CD"/>
<path d="M20.5043 5.79542L20.0829 7.07084L19.8592 6.9989L20.2216 5.90217L19.8258 5.77483L19.6398 6.2606C19.5801 6.41191 19.5212 6.52544 19.4634 6.60119C19.4064 6.67654 19.3437 6.72483 19.2752 6.74606C19.2067 6.76729 19.1256 6.76288 19.0322 6.7328L18.9754 6.71453L19.0339 6.53757L19.0702 6.54638C19.1233 6.55826 19.1689 6.55321 19.2069 6.53121C19.2455 6.50938 19.2822 6.46951 19.3171 6.4116C19.3527 6.35328 19.3935 6.26406 19.4398 6.1439L19.671 5.52733L20.5043 5.79542Z" fill="#3452CD"/>
<path d="M21.6262 7.05055C21.5704 7.16991 21.5004 7.26525 21.4163 7.33655C21.3325 7.4073 21.2402 7.4492 21.1397 7.4622C21.0398 7.4749 20.9394 7.45823 20.8382 7.41215C20.7383 7.36659 20.6603 7.30196 20.6042 7.21821C20.5488 7.13417 20.5207 7.03775 20.5195 6.92896C20.5189 6.82042 20.5456 6.70772 20.5996 6.5909L20.6316 6.5223C20.6872 6.40351 20.7574 6.3083 20.8424 6.23669C20.9279 6.16534 21.0205 6.12331 21.1203 6.11061C21.2211 6.09759 21.3217 6.11399 21.4222 6.1598C21.5228 6.20561 21.6004 6.27014 21.6554 6.35336C21.7112 6.43628 21.7392 6.5323 21.7397 6.64139C21.7402 6.74993 21.713 6.86374 21.6579 6.98279L21.6262 7.05055ZM21.4417 6.8893C21.5048 6.75434 21.5272 6.63903 21.5088 6.5434C21.4912 6.44803 21.4349 6.37873 21.34 6.33549C21.2474 6.29328 21.1578 6.2962 21.0717 6.34421C20.9864 6.39192 20.9125 6.48106 20.8499 6.6116L20.8171 6.68189C20.7544 6.81573 20.7324 6.93118 20.7507 7.02816C20.7695 7.12542 20.8258 7.19542 20.9195 7.23813C21.0145 7.28137 21.1041 7.27887 21.1883 7.23065C21.2731 7.18268 21.3476 7.0901 21.4119 6.95288L21.4417 6.8893Z" fill="#3452CD"/>
<path d="M22.9201 7.19378L22.381 6.87754L21.7835 7.86934L21.5814 7.75074L22.2761 6.59736L23.0174 7.03218L22.9201 7.19378Z" fill="#3452CD"/>
<path d="M23.9661 7.70243L24.1552 7.84183L23.3416 8.917L23.1523 8.77763L23.7319 8.01185L22.6746 8.42559L22.4855 8.28618L23.2992 7.211L23.4884 7.35039L22.9083 8.1169L23.9661 7.70243Z" fill="#3452CD"/>
<path d="M25.2709 8.84271L24.3346 9.81614L24.164 9.65642L24.5325 9.27335C24.4418 9.22316 24.3568 9.16089 24.2775 9.08651C24.1596 8.97624 24.0952 8.86718 24.084 8.7593C24.0728 8.65143 24.1167 8.54558 24.2157 8.44175L24.5128 8.13286L24.6834 8.29259L24.385 8.6028C24.326 8.66517 24.298 8.72282 24.301 8.77573C24.3042 8.82864 24.3399 8.88702 24.4079 8.95082C24.4864 9.02434 24.5717 9.08638 24.6638 9.13693L25.1002 8.68299L25.2709 8.84271Z" fill="#3452CD"/>
<path d="M25.5015 10.2205L25.1387 9.80221L24.8208 10.0707L25.2449 10.5596L25.1014 10.6807L24.5239 10.0148L25.5571 9.14215L26.1304 9.80311L25.9858 9.92539L25.5659 9.44138L25.2807 9.68232L25.6434 10.1006L25.5015 10.2205Z" fill="#3452CD"/>
<path d="M26.2374 11.5071C26.1098 11.5768 25.9862 11.5963 25.8661 11.5658C25.7466 11.5349 25.6431 11.4564 25.5556 11.3303C25.4946 11.2421 25.4618 11.1501 25.4573 11.0543C25.4535 10.9586 25.4781 10.8662 25.5309 10.777C25.5838 10.6878 25.6613 10.6075 25.7635 10.5363L25.8685 10.4655C25.9743 10.3941 26.0805 10.3496 26.1868 10.3321C26.2931 10.3146 26.392 10.3255 26.4834 10.365C26.5753 10.4049 26.6527 10.4702 26.7154 10.5609C26.8 10.683 26.8346 10.8039 26.8189 10.9239C26.803 11.0438 26.7381 11.1513 26.6237 11.2464L26.4909 11.0549C26.5653 10.9913 26.6072 10.9288 26.6167 10.8673C26.627 10.8061 26.6072 10.7395 26.5573 10.6676C26.4995 10.5839 26.4237 10.5406 26.3303 10.5375C26.2377 10.5346 26.1312 10.573 26.0108 10.6528L25.9113 10.7199C25.79 10.8018 25.7121 10.8855 25.6779 10.9711C25.6441 11.0572 25.6557 11.1415 25.713 11.2241C25.7652 11.2996 25.8219 11.3447 25.8826 11.3594C25.9435 11.3742 26.0174 11.3596 26.1046 11.3156L26.2374 11.5071Z" fill="#3452CD"/>
<path d="M26.7062 12.0404L26.6304 11.9008L26.1166 12.1726L26.0055 11.9681L27.2043 11.334L27.3153 11.5385L26.8115 11.805L26.8727 11.9178L27.5653 11.9986L27.702 12.2501L26.9077 12.1479L26.5227 12.9199L26.3886 12.6732L26.7062 12.0404Z" fill="#3452CD"/>
<path d="M27.5822 13.7988C27.4583 13.8477 27.3412 13.8696 27.2304 13.8645C27.1202 13.8591 27.0241 13.827 26.9418 13.7683C26.8604 13.7099 26.799 13.6298 26.7575 13.5278C26.7166 13.4269 26.7049 13.3271 26.7224 13.2282C26.7407 13.1297 26.7873 13.0405 26.8623 12.9606C26.9374 12.8813 27.0353 12.8175 27.1558 12.7691L27.2269 12.741C27.35 12.6923 27.4674 12.6707 27.5789 12.6762C27.6907 12.6822 27.7874 12.7144 27.8688 12.7728C27.951 12.8316 28.0127 12.9116 28.0539 13.013C28.0951 13.1145 28.1067 13.214 28.0887 13.3117C28.0716 13.4098 28.0251 13.4986 27.9493 13.5781C27.8742 13.6574 27.7753 13.7217 27.6524 13.771L27.5822 13.7988ZM27.5601 13.5565C27.7 13.5012 27.7967 13.4326 27.8499 13.3506C27.9033 13.2693 27.9106 13.1808 27.8718 13.0851C27.8338 12.9916 27.7668 12.9332 27.6709 12.9097C27.5755 12.8865 27.4597 12.9012 27.3234 12.9538L27.2506 12.9826C27.1119 13.0375 27.0154 13.1064 26.9612 13.1893C26.9072 13.2728 26.8994 13.3619 26.9379 13.4564C26.9768 13.5522 27.0436 13.611 27.1384 13.633C27.2335 13.6556 27.352 13.6388 27.4943 13.5826L27.5601 13.5565Z" fill="#3452CD"/>
<path d="M28.5955 14.7052L28.657 14.93L27.3443 15.2803L27.2828 15.0554L28.2177 14.806L27.1271 14.4875L27.0655 14.2626L28.3783 13.9123L28.4398 14.1372L27.5039 14.3869L28.5955 14.7052ZM28.9319 14.623C28.8561 14.6432 28.7878 14.6335 28.7266 14.5939C28.6654 14.5542 28.6228 14.4909 28.599 14.4037C28.5751 14.3167 28.5796 14.2408 28.6121 14.1761C28.6447 14.1115 28.6987 14.069 28.7745 14.0488L28.8188 14.2106C28.7793 14.2212 28.7513 14.2404 28.735 14.2683C28.7196 14.2965 28.7172 14.3303 28.7279 14.3694C28.7386 14.4085 28.7578 14.4361 28.7854 14.4522C28.8137 14.4682 28.8476 14.4709 28.8873 14.4604L28.9319 14.623Z" fill="#3452CD"/>
<path d="M27.6116 17.1242L27.588 16.8933L28.7513 16.7774L28.6913 16.1901L27.528 16.3058L27.5044 16.0749L28.8571 15.9404L28.9645 16.9895L27.6116 17.1242Z" fill="#3452CD"/>
<path d="M28.2566 18.5208C28.1235 18.5186 28.0069 18.4939 27.9068 18.4469C27.8074 18.3997 27.7313 18.3334 27.6786 18.2477C27.6265 18.1628 27.6014 18.0653 27.6033 17.9555C27.6051 17.8468 27.6334 17.7502 27.6884 17.6657C27.744 17.5819 27.822 17.5175 27.9224 17.4725C28.0228 17.4282 28.138 17.4067 28.2682 17.4082L28.3447 17.4095C28.4773 17.4117 28.5938 17.4367 28.6945 17.4844C28.7952 17.5327 28.8715 17.5994 28.9236 17.6844C28.9763 17.7699 29.0018 17.8674 28.9999 17.9768C28.998 18.086 28.9696 18.1822 28.9146 18.2655C28.8604 18.3494 28.7827 18.4134 28.6816 18.4579C28.5814 18.5022 28.4649 18.5236 28.3323 18.5221L28.2566 18.5208ZM28.3316 18.289C28.4822 18.2915 28.5982 18.2652 28.6794 18.21C28.7606 18.1555 28.8022 18.0766 28.8039 17.9735C28.8056 17.8728 28.7668 17.7933 28.6874 17.7347C28.6087 17.677 28.4963 17.6462 28.3501 17.6426L28.2716 17.6414C28.1222 17.6389 28.0063 17.6656 27.9238 17.7212C27.8413 17.7776 27.7991 17.8568 27.7974 17.9586C27.7957 18.0618 27.8342 18.1417 27.9129 18.1982C27.9916 18.2554 28.1076 18.2852 28.2606 18.2879L28.3316 18.289Z" fill="#3452CD"/>
<path d="M28.9108 19.224L27.8234 19.4592L28.7984 19.9888L28.7545 20.2869L27.4092 20.0942L27.4431 19.8645L27.8865 19.928L28.4763 20.0358L27.4973 19.4954L27.5216 19.3303L28.6149 19.0876L28.0193 19.0256L27.5759 18.9621L27.6096 18.7322L28.9549 18.9249L28.9108 19.224Z" fill="#3452CD"/>
<path d="M27.6832 21.5505C27.5548 21.5154 27.4483 21.4625 27.3635 21.392C27.2794 21.3218 27.2228 21.2386 27.1936 21.1426C27.165 21.0474 27.1655 20.9469 27.1953 20.8409C27.225 20.7362 27.2771 20.6498 27.3518 20.5816C27.427 20.5143 27.5189 20.4714 27.6276 20.4528C27.7359 20.4348 27.8529 20.4426 27.9784 20.4765L28.052 20.4966C28.1797 20.5318 28.2862 20.5848 28.3715 20.6562C28.4565 20.7279 28.5133 20.8114 28.5421 20.9066C28.5711 21.0026 28.5709 21.1033 28.5411 21.2086C28.5114 21.314 28.4594 21.4 28.3849 21.467C28.311 21.5347 28.2196 21.5774 28.1105 21.5952C28.002 21.6134 27.8838 21.6051 27.7559 21.5705L27.6832 21.5505ZM27.8148 21.3448C27.9599 21.3847 28.0788 21.388 28.1714 21.3548C28.264 21.3222 28.3244 21.2561 28.3524 21.1568C28.3797 21.0597 28.3625 20.9731 28.3006 20.8967C28.2392 20.8212 28.1384 20.7635 27.9978 20.7237L27.9223 20.703C27.7783 20.6635 27.6594 20.6605 27.5653 20.6938C27.4711 20.728 27.4102 20.794 27.3824 20.8924C27.3544 20.9917 27.3712 21.0786 27.4329 21.1529C27.4945 21.2278 27.5991 21.2855 27.7465 21.326L27.8148 21.3448Z" fill="#3452CD"/>
<path d="M28.1625 22.3558L27.0894 21.8951L26.9239 22.2701L27.997 22.7311L27.9032 22.944L26.8301 22.4832L26.6658 22.8558L27.7389 23.3166L27.6449 23.5294L26.5649 23.0657L26.5016 23.2093L26.0436 22.9926L26.1261 22.8049L26.4258 22.9336L27.0112 21.6062L28.2571 22.1413L28.1625 22.3558Z" fill="#3452CD"/>
<path d="M26.9476 24.7217L26.8238 24.9204L25.6664 24.2181L25.7902 24.0194L26.6145 24.5197L26.1027 23.5178L26.2265 23.3192L27.3839 24.0214L27.2601 24.2201L26.4351 23.7195L26.9476 24.7217Z" fill="#3452CD"/>
</g>
<defs>
<clipPath id="clip0_19_90">
<rect width="32" height="32" fill="white"/>
</clipPath>
</defs>
</svg>
