<?xml version="1.0" standalone="no"?>
<!DOCTYPE svg PUBLIC "-//W3C//DTD SVG 20010904//EN"
 "http://www.w3.org/TR/2001/REC-SVG-20010904/DTD/svg10.dtd">
<svg version="1.0" xmlns="http://www.w3.org/2000/svg"
 width="700.000000pt" height="700.000000pt" viewBox="0 0 700.000000 700.000000"
 preserveAspectRatio="xMidYMid meet">
<metadata>
Created by potrace 1.14, written by Peter Selinger 2001-2017
</metadata>
<g transform="translate(0.000000,700.000000) scale(0.100000,-0.100000)"
fill="#000000" stroke="none">
<path d="M3310 5860 l0 -150 25 0 c24 0 25 2 25 64 l0 63 38 7 c20 3 52 6 70
6 l32 0 0 -70 c0 -68 1 -70 25 -70 l25 0 0 150 0 150 -25 0 c-24 0 -25 -3 -25
-60 l0 -60 -70 0 -70 0 0 60 c0 57 -1 60 -25 60 l-25 0 0 -150z"/>
<path d="M3646 5973 c-3 -21 -8 -72 -11 -113 -3 -41 -8 -92 -11 -113 -6 -38
-5 -38 22 -35 28 3 29 6 32 61 3 51 5 57 25 57 16 -1 32 -18 62 -68 32 -53 46
-68 68 -70 15 -2 27 0 27 4 0 3 -20 40 -45 81 -25 40 -45 76 -45 78 0 2 25 32
55 67 l55 63 -27 6 c-24 5 -35 -1 -75 -45 -26 -28 -47 -54 -48 -58 0 -5 -9 -8
-21 -8 -19 0 -20 4 -14 65 7 65 7 65 -18 65 -22 0 -26 -5 -31 -37z"/>
<path d="M3051 5978 c-47 -25 -66 -64 -65 -131 0 -73 21 -119 67 -148 37 -23
93 -21 133 6 67 44 70 174 6 247 -32 35 -100 48 -141 26z m94 -51 c18 -15 30
-38 36 -72 12 -66 -2 -109 -42 -125 -27 -11 -34 -10 -57 7 -57 42 -63 181 -9
203 34 14 44 12 72 -13z"/>
<path d="M2627 5949 c-5 -19 -10 -20 -46 -14 -41 7 -51 -1 -29 -23 31 -31 118
1 118 43 0 23 -37 18 -43 -6z"/>
<path d="M3987 5942 c-67 -41 -91 -182 -41 -241 34 -41 91 -57 137 -37 46 19
74 57 87 122 14 67 2 112 -41 149 -37 30 -99 33 -142 7z m114 -43 c18 -18 21
-30 17 -80 -5 -76 -31 -113 -81 -117 -27 -2 -39 2 -51 20 -30 42 -11 154 31
186 25 18 60 15 84 -9z"/>
<path d="M2711 5907 c-20 -10 -30 -31 -54 -125 -17 -62 -33 -109 -37 -105 -3
4 -18 48 -34 96 -25 81 -29 87 -49 81 -12 -3 -23 -8 -25 -9 -1 -1 17 -65 42
-141 40 -129 45 -139 67 -136 12 1 25 4 27 6 2 3 16 55 32 116 16 61 30 113
32 116 3 2 17 -37 33 -87 30 -92 42 -108 68 -92 12 7 6 32 -32 150 l-46 143
-24 -13z"/>
<path d="M4292 5801 c-40 -107 -56 -131 -86 -131 -15 0 -26 -7 -29 -19 -6 -25
0 -31 32 -31 53 0 85 41 132 165 18 49 23 55 42 49 37 -11 67 -23 67 -27 0 -1
-18 -56 -40 -122 -22 -65 -38 -120 -37 -122 2 -1 14 -4 26 -5 22 -3 27 7 67
132 24 74 44 138 44 142 0 6 -157 58 -177 58 -5 0 -23 -40 -41 -89z"/>
<path d="M2303 5765 c-61 -26 -83 -89 -58 -165 20 -61 70 -115 115 -123 50
-11 112 21 135 69 16 33 16 44 6 84 -17 62 -41 101 -81 127 -38 26 -71 28
-117 8z m114 -74 c13 -19 28 -52 34 -74 9 -35 8 -44 -9 -66 -37 -50 -90 -40
-128 25 -52 89 -31 158 46 152 26 -2 40 -11 57 -37z"/>
<path d="M4636 5760 c-41 -13 -66 -38 -92 -95 -41 -88 -25 -153 46 -190 66
-34 134 -4 174 77 34 69 35 126 1 167 -24 27 -40 36 -85 46 -8 2 -28 -1 -44
-5z m82 -56 c30 -21 29 -74 -4 -134 -37 -69 -79 -83 -126 -42 -34 29 -15 116
36 167 29 29 62 32 94 9z"/>
<path d="M2085 5656 c-17 -12 -17 -16 13 -67 l30 -53 -54 -33 c-30 -18 -57
-33 -60 -33 -2 0 -18 23 -35 50 -34 55 -33 54 -59 40 -17 -9 -13 -20 58 -140
42 -71 79 -129 82 -129 3 0 13 6 23 13 17 13 16 17 -12 64 -17 27 -31 53 -31
58 0 12 102 74 112 68 4 -3 20 -27 35 -54 29 -52 43 -60 63 -36 9 12 -2 38
-61 136 -39 66 -75 123 -79 125 -4 2 -15 -2 -25 -9z"/>
<path d="M4835 5524 c-71 -118 -75 -127 -58 -140 10 -7 20 -13 23 -13 4 0 39
55 132 211 4 8 27 -1 67 -25 57 -34 61 -35 71 -17 8 16 0 24 -68 64 -44 25
-81 46 -85 46 -3 0 -40 -57 -82 -126z"/>
<path d="M5059 5403 c-45 -60 -86 -113 -90 -119 -6 -7 1 -16 16 -24 22 -12 36
-9 132 28 58 23 109 40 111 38 2 -3 -23 -40 -56 -83 -56 -74 -59 -80 -41 -91
10 -7 21 -12 24 -12 2 0 44 52 91 115 72 96 84 117 74 130 -18 21 -27 20 -141
-25 -56 -22 -104 -38 -107 -36 -2 3 22 38 53 80 48 63 55 79 45 91 -7 8 -16
15 -20 15 -5 0 -46 -48 -91 -107z"/>
<path d="M1755 5440 c-22 -11 -57 -35 -77 -53 l-38 -32 86 -110 c105 -136 96
-128 119 -111 19 14 19 16 -13 60 l-34 46 24 20 c13 11 26 19 31 20 13 0 47
64 47 87 0 29 -47 81 -80 88 -15 3 -41 -3 -65 -15z m75 -50 c11 -11 20 -27 20
-36 0 -17 -58 -74 -76 -74 -6 0 -23 17 -38 38 l-27 37 33 28 c38 32 61 34 88
7z"/>
<path d="M5367 5253 c-61 -71 -59 -98 9 -161 l47 -43 -42 -43 c-40 -41 -41
-43 -23 -59 17 -16 23 -12 120 87 56 57 102 108 102 113 0 6 -7 16 -15 23 -14
11 -23 6 -63 -33 -26 -26 -52 -47 -58 -47 -14 0 -74 63 -74 78 0 7 19 33 42
58 41 44 41 45 22 64 -19 18 -20 18 -67 -37z"/>
<path d="M1493 5230 c-39 -24 -53 -48 -53 -95 0 -44 12 -69 54 -113 56 -61
110 -76 164 -48 84 43 94 131 25 207 -64 71 -128 87 -190 49z m117 -49 c14
-10 35 -33 48 -51 64 -94 -27 -164 -114 -88 -47 42 -67 88 -54 123 17 46 68
52 120 16z"/>
<path d="M1280 5013 c-82 -96 -84 -101 -69 -119 10 -12 16 -9 44 23 l32 37 97
-84 c96 -81 98 -83 116 -64 19 19 17 21 -80 102 l-100 84 30 36 c22 27 27 39
18 49 -6 7 -13 13 -17 13 -3 0 -35 -35 -71 -77z"/>
<path d="M5537 4984 l-116 -97 61 -71 c33 -39 64 -72 68 -74 4 -1 12 4 19 11
9 12 2 25 -34 65 -25 27 -45 52 -45 55 0 3 16 18 35 33 l35 27 42 -47 c37 -43
42 -46 57 -32 14 14 12 19 -22 54 -20 21 -37 42 -37 48 0 6 12 21 26 35 l26
24 49 -53 c41 -45 52 -52 64 -42 17 14 9 27 -68 113 l-43 49 -117 -98z"/>
<path d="M4190 4978 c0 -7 -27 -209 -59 -450 l-58 -436 -64 -73 c-79 -91 -120
-132 -188 -188 -81 -67 -165 -189 -249 -360 l-75 -154 -32 84 c-77 203 -148
308 -281 415 -82 66 -225 210 -245 247 -4 7 -31 195 -60 420 -52 403 -53 407
-76 407 -17 0 -23 -6 -23 -23 0 -13 20 -177 45 -365 25 -187 45 -348 45 -356
0 -10 -25 4 -72 40 -142 106 -328 184 -442 184 -53 0 -70 -5 -128 -39 l-67
-39 -146 245 c-108 180 -151 243 -162 239 -8 -3 -17 -6 -19 -6 -14 0 12 -49
142 -267 122 -204 143 -247 131 -256 -63 -52 -105 -170 -206 -575 -84 -337
-98 -419 -83 -470 16 -51 67 -98 124 -113 43 -12 53 -11 100 9 29 12 55 19 59
14 3 -4 23 -65 43 -136 37 -130 59 -177 179 -385 36 -62 76 -143 88 -180 58
-175 133 -258 213 -231 19 6 42 20 51 30 27 29 40 25 82 -27 147 -180 190
-191 268 -62 l37 61 29 -31 c39 -43 90 -43 130 0 26 28 34 31 69 25 22 -3 50
-1 65 6 36 16 73 98 86 193 32 229 45 282 64 263 3 -3 15 -54 26 -114 42 -232
51 -268 69 -304 21 -41 47 -52 101 -44 30 5 41 1 71 -25 47 -41 100 -43 139
-5 l27 26 41 -56 c51 -68 80 -89 114 -81 31 8 80 56 133 129 21 31 44 58 51
60 6 3 29 -9 50 -26 32 -25 44 -29 77 -25 69 10 119 74 182 237 47 123 86 201
139 275 61 87 74 115 121 269 23 76 46 142 51 147 6 6 23 5 42 -2 43 -15 154
-6 187 16 14 9 35 37 46 62 18 41 19 52 9 126 -12 91 -134 573 -180 714 -27
82 -73 182 -102 224 -9 12 17 75 130 313 77 164 139 302 136 306 -3 4 -13 10
-22 12 -15 4 -42 -45 -153 -279 -74 -157 -137 -286 -140 -288 -3 -2 -33 10
-67 27 -156 77 -378 27 -576 -131 l-78 -62 6 33 c3 18 28 206 56 417 41 312
48 385 37 392 -19 13 -38 11 -38 -3z m-1673 -678 c107 -38 236 -131 400 -290
90 -87 92 -90 99 -147 9 -73 -8 -200 -37 -278 -17 -47 -38 -76 -96 -133 -91
-91 -95 -116 -33 -198 22 -29 40 -56 40 -60 0 -3 13 -23 28 -43 53 -68 57 -65
-69 -58 -159 8 -218 32 -234 95 -9 39 -79 153 -111 182 -31 29 -24 12 19 -43
40 -52 77 -157 83 -237 l5 -65 -35 94 c-19 51 -47 111 -61 132 -26 37 -77 69
-110 69 -24 0 -72 -27 -78 -45 -6 -13 3 -14 61 -9 l68 7 32 -44 c18 -23 32
-47 32 -51 0 -4 -24 -8 -54 -8 -99 0 -119 -25 -28 -35 87 -9 100 -18 133 -90
38 -80 36 -101 -11 -99 -31 2 -33 1 -15 -10 43 -25 83 -74 103 -127 28 -76 45
-237 40 -378 -6 -152 -20 -181 -89 -181 -73 0 -112 57 -178 259 -34 104 -46
128 -88 175 -100 113 -158 250 -170 402 -5 68 -4 76 47 203 29 73 64 146 78
163 25 29 28 30 93 26 86 -7 206 -63 308 -147 41 -34 77 -61 80 -61 3 1 -36
41 -86 89 -51 49 -93 91 -93 94 0 3 24 19 53 35 58 32 121 82 113 89 -2 2 -32
-10 -67 -27 -79 -40 -143 -46 -273 -27 -104 16 -135 32 -121 64 5 10 8 21 7
25 -1 3 22 24 51 47 68 52 105 91 86 91 -8 -1 -25 -7 -39 -15 -43 -24 -49 -19
-33 28 12 35 13 66 4 190 -15 219 -28 216 -33 -8 -3 -155 -6 -195 -20 -220
l-17 -30 -1 60 c-1 63 -13 130 -32 178 -15 38 -20 29 -8 -14 25 -86 32 -249
11 -249 -4 0 -31 43 -61 95 -52 92 -75 123 -85 113 -3 -3 10 -25 29 -49 47
-62 88 -171 94 -251 4 -53 0 -82 -19 -138 -31 -95 -108 -238 -141 -263 -33
-25 -122 -34 -172 -17 -78 25 -73 105 28 515 75 302 114 430 155 500 33 58
100 110 131 102 13 -3 20 0 20 9 0 46 153 54 267 14z m2218 -2 c14 -6 25 -14
25 -18 0 -4 13 -10 28 -13 47 -10 134 -113 165 -194 32 -87 160 -595 182 -720
27 -154 1 -203 -108 -203 -106 0 -158 47 -222 199 -41 99 -56 183 -44 249 14
73 55 187 86 235 13 21 23 41 20 43 -7 7 -25 -19 -75 -111 -67 -124 -77 -123
-69 6 3 57 13 126 21 154 8 27 13 51 11 54 -11 10 -36 -76 -46 -152 -17 -137
-20 -148 -33 -153 -8 -3 -41 2 -74 10 -33 9 -70 16 -83 15 -21 -1 -19 -3 11
-16 137 -58 171 -77 176 -100 4 -14 2 -29 -4 -35 -11 -11 -110 -25 -242 -34
l-85 -6 -80 42 -80 42 30 -32 c17 -17 57 -48 90 -67 33 -20 62 -38 65 -40 2
-2 -23 -28 -55 -57 -33 -30 -69 -69 -79 -87 l-20 -34 45 37 c73 62 171 125
222 142 70 23 172 21 197 -4 11 -11 20 -25 20 -30 0 -6 25 -70 55 -142 30 -72
55 -142 55 -155 0 -96 -126 -399 -195 -470 -25 -26 -43 -61 -66 -132 -42 -129
-94 -238 -124 -257 -38 -25 -103 -15 -129 19 -41 55 -31 361 16 502 24 71 50
110 92 136 l31 20 -42 -7 c-24 -4 -43 -4 -43 -2 0 3 7 25 15 49 26 74 62 116
127 148 l59 30 -60 7 -60 7 31 43 c37 52 48 57 116 48 44 -5 54 -4 50 7 -6 18
-47 39 -78 39 -64 0 -127 -77 -172 -210 -20 -62 -22 -64 -29 -36 -17 64 37
216 97 271 19 18 31 36 26 39 -17 11 -90 -83 -130 -168 -28 -57 -47 -85 -66
-94 -29 -13 -205 -37 -213 -28 -3 2 5 19 17 36 12 17 23 38 25 48 1 9 7 16 13
15 6 -2 31 26 56 62 57 80 61 121 16 167 -26 26 -36 29 -65 24 -43 -8 -74 10
-102 61 -34 62 -44 117 -44 248 1 194 0 192 103 303 107 116 195 178 314 222
136 49 241 59 309 28z m-799 -562 c22 -151 70 -252 140 -300 l31 -21 -38 -50
c-73 -95 -129 -174 -129 -181 0 -4 18 18 41 49 22 32 43 57 47 57 4 0 26 -17
50 -38 l43 -37 -44 -61 c-54 -73 -82 -85 -114 -48 -13 14 -23 21 -23 15 0 -5
5 -13 10 -16 23 -14 7 -31 -43 -47 -64 -21 -86 -22 -110 -3 -13 9 -17 20 -12
34 8 27 62 71 86 71 33 0 21 17 -17 24 -33 7 -35 9 -30 39 5 27 2 24 -19 -18
-13 -27 -24 -55 -24 -60 -2 -23 -63 -84 -94 -93 -69 -21 -147 -35 -154 -28 -4
4 -10 28 -14 54 -5 36 -7 24 -8 -53 l-1 -100 -27 39 c-32 44 -83 73 -155 86
-74 14 -94 31 -135 114 -35 71 -36 73 -54 55 -11 -11 -22 -19 -26 -19 -5 0
-46 49 -91 110 -46 60 -92 112 -103 115 -18 6 -15 12 24 55 57 63 75 102 97
210 22 107 29 130 40 130 17 0 127 -88 167 -134 111 -126 219 -347 252 -517
l9 -44 1 64 c2 147 75 322 193 464 37 44 209 189 216 182 2 -1 10 -46 18 -99z
m-826 -588 c0 -33 -35 -72 -57 -64 -8 3 -19 6 -24 6 -5 0 -29 26 -54 58 l-46
57 48 42 47 41 43 -56 c26 -35 43 -68 43 -84z m76 -29 c26 -51 14 -69 -44 -69
-47 0 -56 13 -38 48 9 17 16 40 16 51 0 18 3 19 26 9 14 -7 32 -24 40 -39z
m-448 -33 c33 -18 75 -61 95 -100 l15 -30 7 32 c9 42 30 52 105 52 103 0 166
-42 158 -107 -3 -25 -8 -29 -48 -36 -25 -5 -55 -11 -68 -13 -12 -2 -34 -18
-49 -34 l-26 -29 -53 48 c-71 65 -134 95 -185 88 l-39 -5 0 67 c0 37 3 71 7
74 11 12 53 8 81 -7z m1614 -31 c4 -17 4 -44 0 -60 -7 -26 -16 -32 -69 -46
-65 -17 -137 -55 -167 -88 -26 -28 -60 -26 -102 6 -28 21 -46 26 -85 25 l-49
-1 0 34 c0 71 68 115 177 115 58 0 81 -15 90 -62 l6 -29 17 38 c29 64 85 104
139 100 30 -2 36 -7 43 -32z m-1064 -70 c29 -13 68 -41 88 -62 l36 -38 -31 60
c-30 57 -30 60 -11 63 45 7 145 -106 135 -152 -27 -126 -58 -246 -63 -246 -4
1 -20 19 -35 41 -47 68 -127 85 -162 36 -20 -28 -29 -16 -21 29 15 78 92 108
164 64 41 -25 50 -25 27 0 -53 59 -99 69 -172 39 -29 -12 -34 -11 -54 6 -12
11 -28 34 -35 52 -15 34 -19 115 -7 126 14 15 91 5 141 -18z m352 15 c0 -6
-12 -34 -26 -63 l-26 -52 42 48 c51 58 86 77 142 77 58 0 88 -22 88 -63 0 -39
-30 -105 -58 -130 -20 -18 -22 -18 -67 2 -59 26 -77 26 -100 1 -18 -20 -17
-20 8 -20 67 0 127 -46 127 -97 0 -39 -3 -40 -37 -13 -42 33 -95 27 -144 -17
-53 -48 -59 -38 -59 93 0 129 14 204 41 227 23 19 69 23 69 7z m-863 -116 c46
-17 107 -78 129 -130 20 -48 18 -53 -25 -47 -37 5 -81 -9 -81 -26 0 -5 19 -6
43 -4 76 9 130 -56 168 -204 26 -102 25 -214 -2 -273 -24 -54 -66 -100 -90
-100 -37 0 -138 117 -170 197 -6 15 -15 102 -19 193 -6 117 -16 200 -34 283
-14 66 -24 123 -20 128 6 10 39 5 101 -17z m1549 -11 c-38 -190 -56 -324 -58
-443 l-3 -136 -35 -54 c-84 -133 -136 -164 -195 -118 -45 35 -65 92 -65 185 0
148 42 288 102 338 33 28 93 34 131 13 20 -10 21 -10 8 6 -20 24 -65 46 -96
46 -14 0 -28 7 -32 16 -9 25 27 93 68 124 48 39 74 49 132 49 48 1 48 1 43
-26z m-325 -39 c54 -39 58 -55 38 -129 -16 -59 -24 -66 -62 -51 -18 8 -50 16
-72 20 l-40 6 45 -23 c70 -37 77 -57 56 -166 -9 -50 -21 -122 -25 -160 -4 -37
-15 -80 -24 -94 -19 -30 -69 -47 -107 -37 -42 11 -52 44 -46 150 20 330 28
382 65 439 18 29 88 81 109 81 8 0 36 -16 63 -36z m-883 -4 c23 -16 49 -41 58
-55 17 -25 38 -204 50 -415 6 -98 5 -107 -16 -132 -17 -22 -30 -28 -60 -28
-66 0 -80 21 -96 142 -7 59 -18 126 -24 150 -24 105 -11 141 60 172 34 15 28
21 -15 16 -11 -1 -30 -8 -42 -16 -36 -23 -53 -17 -73 29 -27 59 -25 89 8 119
61 57 92 60 150 18z m264 -177 c51 -54 60 -174 23 -300 -18 -60 -58 -113 -86
-113 -57 0 -103 223 -64 316 14 35 14 36 -5 31 -25 -6 -25 -2 1 39 38 61 89
72 131 27z m328 12 c48 -25 60 -105 40 -265 -6 -41 -15 -90 -21 -107 -10 -31
-14 -33 -55 -33 -34 0 -47 5 -58 23 -13 21 -66 259 -66 299 0 10 16 36 36 58
40 44 73 51 124 25z"/>
<path d="M2453 2923 c-13 -5 -19 -33 -7 -33 3 0 14 5 25 10 34 19 19 38 -18
23z"/>
<path d="M4651 4095 c-18 -89 -18 -308 1 -350 12 -28 13 -21 16 83 1 61 1 163
0 225 l-3 112 -14 -70z"/>
<path d="M3931 3154 c0 -11 3 -14 6 -6 3 7 2 16 -1 19 -3 4 -6 -2 -5 -13z"/>
<path d="M3575 2758 l-16 -33 21 24 c11 13 20 27 20 32 0 18 -10 8 -25 -23z"/>
<path d="M5778 4810 c-47 -14 -115 -68 -133 -106 -23 -48 -13 -92 29 -133 36
-35 94 -47 118 -23 18 18 -9 43 -39 36 -31 -8 -73 29 -73 66 0 42 96 120 148
120 43 0 80 -78 51 -107 -13 -13 7 -57 22 -48 21 14 41 68 35 99 -6 33 -59 96
-80 96 -6 0 -20 2 -31 5 -11 2 -32 0 -47 -5z"/>
<path d="M1080 4755 c-11 -13 -7 -24 23 -68 100 -144 144 -202 152 -201 24 3
28 32 7 61 l-21 29 31 48 c31 47 32 48 72 42 34 -5 43 -3 53 13 15 23 27 19
-151 61 -148 35 -149 35 -166 15z m138 -56 c23 -7 42 -15 42 -18 0 -3 -10 -19
-23 -35 l-23 -29 -30 39 c-46 59 -50 67 -28 61 11 -3 38 -11 62 -18z"/>
<path d="M5898 4521 c-70 -37 -130 -70 -134 -73 -3 -4 0 -16 6 -28 11 -21 11
-21 67 11 45 26 57 29 64 18 13 -20 12 -23 -25 -97 -27 -54 -31 -71 -23 -89 5
-13 13 -23 16 -23 4 0 25 38 48 83 l41 84 86 -12 c47 -6 86 -10 86 -9 0 2 -5
14 -11 28 -10 21 -21 26 -68 31 -104 11 -137 32 -84 54 16 6 40 19 55 29 23
15 25 20 15 39 -12 21 -14 20 -139 -46z"/>
<path d="M922 4500 c-23 -43 -42 -83 -42 -88 0 -5 36 -30 80 -56 96 -55 120
-78 120 -110 0 -35 28 -41 42 -10 20 44 0 74 -86 131 -43 29 -84 54 -90 56
-11 4 21 87 33 87 3 0 57 -27 119 -59 108 -57 113 -58 123 -39 6 11 7 24 2 28
-4 4 -64 37 -133 73 l-125 65 -43 -78z"/>
<path d="M805 4263 c-6 -25 0 -34 57 -85 l63 -57 -88 -1 c-83 0 -88 -1 -99
-25 -6 -14 -9 -27 -7 -28 2 -2 58 0 124 5 108 7 121 6 133 -10 7 -9 11 -25 8
-35 -4 -18 26 -42 38 -30 3 3 6 23 6 42 0 33 -10 46 -92 127 -51 49 -103 98
-114 107 -21 17 -22 17 -29 -10z"/>
<path d="M6030 4271 c-75 -26 -110 -67 -110 -127 0 -124 130 -164 249 -76 37
27 64 81 55 109 -18 55 -28 73 -49 87 -38 25 -86 27 -145 7z m124 -52 c51 -40
26 -99 -56 -134 -51 -21 -94 -19 -118 5 -36 36 -22 88 33 116 72 38 106 41
141 13z"/>
<path d="M6145 3970 c-118 -31 -140 -40 -143 -57 -4 -28 11 -36 123 -67 55
-16 104 -31 108 -35 4 -4 -32 -18 -80 -31 -110 -28 -113 -30 -102 -57 l8 -22
93 25 c183 49 198 54 198 69 0 26 -28 41 -131 69 -57 16 -107 32 -111 35 -4 4
35 18 88 31 95 24 113 36 97 63 -7 12 -31 8 -148 -23z"/>
<path d="M6357 3966 c-36 -36 -11 -116 36 -116 24 0 21 27 -3 35 -21 7 -27 34
-11 51 5 5 6 17 2 28 -7 17 -8 17 -24 2z"/>
<path d="M697 3963 c-9 -16 -48 -166 -43 -170 2 -2 68 -21 146 -42 95 -26 143
-35 145 -27 18 54 35 124 35 142 0 12 -12 36 -26 53 -21 26 -33 31 -68 31 -50
0 -77 -24 -96 -85 -16 -52 -19 -54 -57 -44 l-32 9 20 68 c10 37 19 68 19 69 0
7 -39 2 -43 -4z m223 -78 c12 -15 9 -89 -4 -102 -3 -3 -25 -2 -48 3 -49 10
-56 26 -34 78 12 30 20 36 44 36 16 0 35 -7 42 -15z"/>
<path d="M625 3691 c-3 -2 -5 -18 -5 -35 0 -29 7 -34 101 -85 56 -29 97 -57
92 -61 -4 -4 -55 -18 -113 -30 -58 -12 -108 -27 -112 -33 -8 -13 -11 -57 -4
-57 3 0 68 -9 146 -21 78 -11 143 -19 145 -17 1 2 5 13 9 24 7 24 -5 27 -144
40 -86 8 -80 13 61 44 137 30 137 42 2 115 -57 32 -103 59 -101 60 2 2 35 -3
73 -10 154 -28 142 -28 147 0 3 14 5 25 4 26 -9 5 -298 44 -301 40z"/>
<path d="M6217 3535 c-65 -7 -120 -15 -122 -17 -8 -8 8 -48 19 -47 6 0 63 6
128 12 l116 13 6 -36 c3 -19 6 -49 6 -66 l0 -32 -130 -12 c-129 -12 -141 -17
-121 -49 7 -11 31 -12 147 -1 77 7 143 16 147 20 4 4 2 57 -4 118 l-12 112
-31 -1 c-17 -1 -84 -7 -149 -14z"/>
<path d="M725 3255 c-133 -46 -150 -55 -153 -76 -2 -22 8 -28 130 -76 73 -29
141 -55 151 -59 13 -5 17 -1 17 20 0 20 -8 29 -35 40 -34 15 -35 16 -29 63 8
68 9 70 43 78 26 5 31 11 31 36 0 16 -1 29 -2 28 -2 0 -70 -25 -153 -54z m35
-85 l0 -40 -57 21 c-32 12 -59 23 -61 24 -5 4 81 33 101 34 13 1 17 -7 17 -39z"/>
<path d="M6185 3204 c-46 -23 -65 -53 -65 -106 0 -86 74 -137 182 -125 78 10
128 58 128 124 0 41 -35 92 -75 109 -45 18 -132 18 -170 -2z m177 -61 c25 -26
27 -67 3 -93 -36 -40 -172 -33 -195 10 -22 42 -6 85 40 103 8 4 41 5 73 4 43
-3 63 -9 79 -24z"/>
<path d="M6117 2913 c-12 -11 -8 -43 6 -44 6 0 57 -6 112 -13 68 -9 92 -15 75
-19 -14 -4 -68 -17 -120 -29 -66 -16 -96 -28 -98 -39 -2 -11 30 -33 103 -73
58 -32 105 -59 103 -61 -2 -1 -50 6 -108 16 -58 9 -105 17 -106 16 -1 -1 -5
-12 -8 -24 -8 -26 -11 -25 147 -48 155 -22 157 -22 157 18 0 31 -5 34 -104 87
-59 31 -100 58 -93 61 7 4 60 17 118 29 105 22 107 23 113 53 3 16 5 32 3 33
-3 3 -269 44 -286 44 -4 0 -11 -3 -14 -7z"/>
<path d="M623 2834 c-25 -25 -25 -29 -20 -110 2 -47 7 -88 10 -91 3 -2 70 4
149 14 l143 18 3 28 c3 27 2 28 -30 23 -71 -12 -82 -11 -85 4 -15 109 -38 140
-103 140 -31 0 -47 -6 -67 -26z m107 -39 c6 -8 14 -32 17 -54 6 -43 7 -42 -69
-54 -31 -5 -38 7 -38 63 0 27 6 42 18 49 25 15 58 13 72 -4z"/>
<path d="M630 2555 c0 -26 52 -225 59 -225 25 1 32 19 22 56 -6 21 -9 40 -7
42 4 3 135 37 219 56 20 5 27 12 27 31 0 14 -3 25 -7 25 -5 0 -62 -13 -128
-29 -66 -16 -123 -27 -127 -25 -3 2 -9 22 -13 44 -5 30 -11 40 -26 40 -10 0
-19 -7 -19 -15z"/>
<path d="M6095 2526 c-52 -23 -70 -52 -70 -113 0 -50 3 -58 33 -83 84 -70 218
-65 257 10 39 76 -3 157 -98 185 -61 18 -83 18 -122 1z m140 -65 c16 -9 36
-29 45 -44 13 -24 13 -28 -6 -54 -16 -21 -31 -29 -62 -31 -54 -4 -128 28 -144
62 -14 33 2 72 34 86 30 13 95 3 133 -19z"/>
<path d="M848 2311 c-70 -25 -130 -49 -133 -53 -4 -3 -4 -16 0 -27 6 -20 6
-20 62 0 30 10 59 17 63 14 9 -6 40 -92 40 -111 0 -7 -25 -21 -55 -30 -55 -18
-63 -27 -46 -53 8 -12 34 -6 150 35 78 27 141 53 141 59 0 5 -4 16 -9 24 -7
11 -19 10 -70 -7 -34 -11 -63 -17 -66 -11 -3 5 -14 33 -25 63 l-19 55 64 21
c58 19 63 23 56 43 -4 11 -12 22 -17 23 -5 1 -66 -19 -136 -45z"/>
<path d="M5958 2223 c-12 -27 -40 -91 -63 -143 -34 -77 -46 -94 -61 -92 -46 8
-59 6 -62 -8 -2 -10 14 -24 44 -38 40 -20 48 -21 58 -8 9 12 29 6 129 -37 98
-42 120 -48 128 -36 5 8 9 19 9 24 0 6 -52 32 -115 59 -63 26 -115 52 -115 56
0 4 7 24 15 44 17 41 -2 45 168 -30 74 -32 90 -36 98 -23 16 26 9 35 -48 59
-32 13 -86 36 -121 52 l-63 27 21 41 c11 22 22 40 23 40 2 0 55 -22 118 -50
104 -45 115 -48 127 -33 6 9 12 20 12 23 0 7 -258 120 -273 120 -4 0 -18 -21
-29 -47z"/>
<path d="M1073 2074 c-8 -4 -2 -26 18 -71 17 -36 29 -66 27 -68 -9 -7 -68 -35
-76 -35 -5 0 -19 23 -32 50 -22 47 -42 62 -55 40 -3 -5 6 -32 20 -61 15 -28
25 -52 23 -54 -2 -2 -19 -10 -39 -18 l-36 -15 -31 64 c-23 46 -36 62 -47 58
-8 -4 -15 -10 -15 -15 0 -11 79 -169 84 -169 4 0 259 122 266 127 6 5 -79 173
-87 172 -5 0 -13 -3 -20 -5z"/>
<path d="M1222 1864 c-32 -19 -41 -30 -37 -44 4 -14 -17 -31 -104 -86 -97 -60
-108 -69 -98 -86 7 -10 16 -18 21 -18 5 0 56 30 113 66 58 36 106 64 107 62
23 -30 66 -99 66 -105 0 -4 -47 -37 -105 -73 -58 -35 -105 -70 -105 -76 0 -6
6 -16 13 -22 10 -9 42 7 135 64 67 42 122 81 122 87 0 7 -18 39 -41 72 -22 33
-47 72 -55 87 -14 26 -13 28 16 43 26 13 29 19 20 35 -14 25 -16 25 -68 -6z"/>
<path d="M5789 1867 c-10 -21 -4 -38 43 -131 30 -58 53 -106 50 -106 -2 0 -42
23 -89 51 -80 49 -85 50 -98 33 -18 -24 -17 -25 127 -112 l116 -71 15 23 c14
21 12 29 -39 126 -30 57 -52 105 -50 108 3 2 42 -19 88 -47 76 -47 84 -50 96
-34 6 9 12 20 12 24 0 5 -180 116 -252 156 -5 2 -13 -7 -19 -20z"/>
<path d="M3415 1636 c-47 -21 -74 -57 -84 -113 -27 -138 31 -223 153 -223 109
0 156 53 156 178 0 55 -5 76 -23 103 -41 62 -131 86 -202 55z m122 -78 c19
-18 23 -32 23 -85 0 -55 -4 -68 -25 -88 -48 -48 -117 -19 -129 55 -8 50 8 116
32 129 29 17 74 12 99 -11z"/>
<path d="M2800 1315 l0 -325 55 0 55 0 1 228 1 227 111 -227 111 -228 63 0 63
0 0 325 0 325 -55 0 -55 0 0 -232 -1 -233 -114 233 -114 232 -60 0 -61 0 0
-325z"/>
<path d="M3920 1595 l-115 -42 -3 -46 c-2 -26 -1 -47 1 -47 2 0 37 11 77 25
40 14 75 25 77 25 2 0 3 -117 3 -260 l0 -260 55 0 55 0 0 325 c0 303 -1 325
-17 324 -10 -1 -70 -20 -133 -44z"/>
<path d="M3340 1205 l0 -35 140 0 140 0 0 35 0 35 -140 0 -140 0 0 -35z"/>
</g>
</svg>
